<?xml version="1.0" standalone="no"?>
<!DOCTYPE svg PUBLIC "-//W3C//DTD SVG 20010904//EN"
 "http://www.w3.org/TR/2001/REC-SVG-20010904/DTD/svg10.dtd">
<svg version="1.0" xmlns="http://www.w3.org/2000/svg"
 width="904.000000pt" height="904.000000pt" viewBox="0 0 904.000000 904.000000"
 preserveAspectRatio="xMidYMid meet">
<metadata>
Created by potrace 1.14, written by Peter Selinger 2001-2017
</metadata>
<g transform="translate(0.000000,904.000000) scale(0.100000,-0.100000)"
fill="#000000" stroke="none">
<path d="M909 9035 c-2 -2 -22 -6 -45 -9 -22 -4 -55 -11 -73 -16 -17 -5 -35
-10 -39 -11 -4 -1 -17 -5 -30 -10 -13 -5 -28 -9 -33 -9 -16 0 -160 -74 -219
-112 -75 -48 -277 -248 -253 -248 5 0 3 -4 -2 -8 -33 -23 -160 -282 -139 -282
4 0 0 -7 -7 -17 -8 -9 -13 -18 -11 -20 1 -1 2 -4 1 -5 -1 -3 -2 -9 -16 -93 -9
-58 -9 -276 1 -320 3 -16 9 -43 12 -60 17 -84 89 -265 106 -265 4 0 8 -5 8
-11 0 -35 177 -243 250 -292 161 -109 284 -163 437 -193 83 -16 329 -9 395 12
9 3 26 7 39 9 69 14 252 98 295 136 11 11 25 19 32 19 17 0 222 208 222 225 0
8 4 15 9 15 5 0 13 9 16 20 3 11 12 26 18 32 24 26 104 204 113 253 38 203 43
321 16 445 -7 36 -15 74 -18 85 -2 11 -8 31 -13 45 -13 36 -22 65 -22 67 3 9
-87 165 -121 212 -49 67 -173 191 -217 217 -17 10 -31 22 -31 26 0 4 -5 8 -10
8 -6 0 -29 12 -52 26 -42 27 -170 83 -198 87 -8 2 -19 5 -25 8 -9 6 -30 10
-110 26 -28 5 -282 13 -286 8z"/>
<path d="M4365 9029 c-16 -5 -35 -7 -42 -4 -7 2 -15 0 -19 -6 -3 -6 -12 -8
-19 -5 -7 2 -16 2 -20 -2 -4 -4 -10 -7 -13 -8 -20 -2 -94 -26 -118 -39 -15 -8
-31 -12 -36 -9 -4 3 -8 1 -8 -4 0 -6 -10 -12 -22 -16 -13 -3 -47 -21 -76 -41
-30 -19 -56 -35 -59 -35 -3 0 -16 -11 -29 -25 -13 -14 -26 -25 -30 -25 -7 0
-119 -113 -147 -148 -46 -59 -87 -123 -87 -136 0 -8 -4 -16 -9 -18 -9 -3 -69
-134 -74 -164 -2 -11 -7 -26 -10 -34 -3 -8 -12 -49 -21 -90 -13 -65 -15 -349
-15 -2190 0 -1726 2 -2127 13 -2177 8 -35 11 -63 9 -63 -3 0 0 -7 7 -15 6 -8
9 -19 6 -24 -4 -5 -2 -12 4 -16 6 -4 8 -10 5 -15 -3 -5 -1 -11 5 -15 5 -3 10
-13 10 -21 0 -18 60 -147 73 -155 5 -3 9 -10 9 -15 3 -51 260 -323 306 -324 6
0 12 -4 12 -8 0 -11 171 -97 215 -108 6 -1 45 -12 87 -24 43 -11 82 -19 87
-15 5 3 12 1 15 -4 6 -9 273 -8 311 2 111 28 152 40 163 49 7 6 15 8 18 6 3
-3 43 14 89 37 282 145 467 388 535 700 19 88 19 146 19 2195 0 1333 -4 2127
-10 2165 -15 90 -16 95 -39 163 -52 155 -128 280 -240 391 -84 84 -93 92 -165
139 -78 52 -220 114 -287 127 -11 2 -29 7 -40 11 -57 18 -314 27 -363 13z"/>
<path d="M7865 9029 c-22 -4 -51 -10 -65 -12 -220 -42 -474 -208 -600 -393
-19 -27 -37 -50 -42 -52 -4 -2 -8 -10 -8 -17 0 -8 -7 -21 -16 -29 -8 -9 -13
-16 -10 -16 3 0 -9 -27 -25 -61 -17 -34 -33 -71 -35 -82 -7 -29 -10 -39 -17
-57 -3 -8 -13 -51 -21 -95 -13 -70 -15 -525 -15 -3695 0 -3688 0 -3674 32
-3775 2 -5 9 -30 16 -55 21 -73 96 -215 161 -302 33 -44 60 -78 60 -76 0 3 22
-16 48 -41 27 -25 61 -55 76 -66 16 -11 33 -24 40 -30 17 -16 85 -53 146 -81
151 -70 275 -94 450 -89 118 4 135 6 231 30 98 26 213 78 304 140 105 71 234
208 291 310 38 68 71 131 73 137 1 4 3 13 6 20 2 7 11 36 20 63 9 28 18 61 20
75 2 14 9 48 14 75 7 33 10 1288 11 3655 0 3230 -2 3614 -16 3695 -17 99 -60
236 -78 247 -6 4 -8 8 -3 8 4 0 0 15 -9 33 -42 80 -115 178 -190 252 -87 86
-88 87 -149 126 -72 46 -100 63 -105 64 -3 0 -32 12 -65 27 -33 15 -72 29 -87
32 -15 2 -32 7 -38 11 -41 25 -316 42 -405 24z"/>
<path d="M1000 6023 c0 -5 -25 -9 -56 -8 -30 0 -58 -3 -60 -7 -2 -4 -13 -5
-24 -3 -11 2 -22 -1 -25 -6 -4 -5 -10 -7 -15 -4 -9 6 -153 -39 -191 -60 -14
-8 -28 -12 -31 -9 -3 2 -11 -2 -18 -11 -7 -8 -19 -15 -26 -15 -8 0 -14 -5 -14
-11 0 -5 -5 -7 -10 -4 -5 3 -10 1 -10 -4 0 -6 -5 -11 -10 -11 -18 0 -121 -81
-186 -145 -109 -107 -223 -293 -250 -410 -3 -11 -6 -24 -8 -30 -4 -13 -14 -53
-23 -90 -11 -42 -15 -4326 -4 -4339 4 -6 9 -18 9 -26 1 -16 9 -55 12 -55 1 0
4 -12 6 -27 7 -40 72 -192 100 -234 13 -19 24 -37 24 -39 0 -12 79 -106 134
-160 80 -80 139 -125 206 -161 30 -16 58 -33 62 -39 4 -5 8 -6 8 -1 0 5 6 4
12 -2 20 -15 158 -63 203 -69 22 -3 49 -9 60 -13 11 -4 29 -6 39 -4 11 1 23 1
27 -2 9 -5 3576 -5 3661 1 32 2 65 6 75 9 10 3 32 8 49 10 206 35 453 198 593
390 60 82 135 236 155 321 2 6 6 21 10 35 23 85 29 300 12 394 -7 36 -11 66
-8 66 2 0 -2 7 -9 17 -8 9 -12 17 -10 17 4 1 -18 84 -29 105 -5 9 -16 34 -26
56 -60 140 -239 345 -363 415 -14 8 -28 17 -31 20 -6 6 -134 68 -165 81 -17 6
-48 15 -90 24 -5 2 -29 8 -53 14 -23 7 -80 14 -125 16 -45 2 -83 5 -84 5 -9 4
-125 2 -128 -2 -3 -2 -26 -2 -53 2 -26 3 -59 3 -72 -1 -14 -3 -30 -2 -37 3 -7
5 -14 5 -17 -1 -4 -7 -15 -7 -31 -1 -13 5 -26 6 -29 1 -3 -4 -27 -5 -53 -1
-27 3 -60 3 -73 -1 -14 -3 -30 -2 -37 3 -7 5 -14 5 -17 -1 -4 -7 -15 -7 -31
-1 -13 5 -26 6 -29 2 -2 -4 -171 -5 -375 -2 -203 3 -380 2 -393 -1 -13 -3 -28
-2 -35 3 -7 5 -14 5 -17 -1 -4 -7 -15 -7 -31 -1 -13 5 -26 6 -29 1 -3 -4 -27
-5 -53 -1 -27 3 -60 3 -73 -1 -14 -3 -30 -2 -37 3 -7 5 -14 5 -17 -1 -4 -7
-15 -7 -31 -1 -13 5 -26 6 -29 1 -3 -4 -27 -5 -53 -1 -27 3 -60 3 -73 -1 -14
-3 -30 -2 -37 3 -7 5 -14 5 -17 -1 -4 -7 -15 -7 -31 -1 -13 5 -26 6 -29 1 -3
-4 -27 -5 -53 -1 -27 3 -60 3 -73 -1 -14 -3 -30 -2 -37 3 -7 5 -14 5 -17 -1
-4 -7 -15 -7 -31 -1 -13 5 -26 6 -29 1 -3 -4 -27 -5 -53 -1 -27 3 -60 3 -73
-1 -14 -3 -30 -2 -37 3 -7 5 -14 5 -17 -1 -4 -6 -15 -7 -30 -1 -15 5 -27 5
-34 -2 -8 -8 -13 -7 -17 3 -3 8 -7 721 -9 1584 -2 864 -6 1580 -7 1593 -2 12
-6 22 -9 22 -3 0 -6 8 -7 18 -1 17 -10 57 -13 57 -1 0 -3 10 -6 23 -9 49 -75
185 -132 271 -57 86 -204 228 -280 271 -15 8 -43 25 -63 37 -41 26 -200 89
-244 96 -16 3 -41 9 -55 12 -14 3 -62 8 -108 10 -45 2 -87 7 -92 10 -6 3 -10
2 -10 -2z"/>
</g>
</svg>
