<svg xmlns="http://www.w3.org/2000/svg" xmlns:xlink="http://www.w3.org/1999/xlink" viewBox="0 0 449 452"><defs><style>.cls-1{fill:url(#linear-gradient);}.cls-2{fill:url(#linear-gradient-2);}.cls-3{fill:url(#linear-gradient-3);}.cls-4{fill:url(#linear-gradient-4);}.cls-5{fill:url(#linear-gradient-5);}</style><linearGradient id="linear-gradient" x1="118.05" y1="418.86" x2="-18.05" y2="183.14" gradientUnits="userSpaceOnUse"><stop offset="0" stop-color="#9951fc"/><stop offset="0.45" stop-color="#9b52fb"/><stop offset="0.61" stop-color="#a255f6"/><stop offset="0.72" stop-color="#ad5aee"/><stop offset="0.82" stop-color="#be61e2"/><stop offset="0.9" stop-color="#d46ad3"/><stop offset="0.97" stop-color="#ef75c0"/><stop offset="1" stop-color="#ff7cb5"/></linearGradient><linearGradient id="linear-gradient-2" x1="499.96" y1="400.86" x2="298.04" y2="51.14" xlink:href="#linear-gradient"/><linearGradient id="linear-gradient-3" x1="74.75" y1="92.86" x2="25.25" y2="7.14" gradientUnits="userSpaceOnUse"><stop offset="0" stop-color="#2a8cfc"/><stop offset="0.19" stop-color="#2890fb"/><stop offset="0.38" stop-color="#239df7"/><stop offset="0.58" stop-color="#1bb1f1"/><stop offset="0.78" stop-color="#10cee8"/><stop offset="0.98" stop-color="#01f3dd"/><stop offset="1" stop-color="#00f7dc"/></linearGradient><linearGradient id="linear-gradient-4" x1="183.5" y1="481.53" x2="90.5" y2="320.47" gradientUnits="userSpaceOnUse"><stop offset="0" stop-color="#2a8cfc"/><stop offset="0.44" stop-color="#298efb"/><stop offset="0.6" stop-color="#2795f9"/><stop offset="0.72" stop-color="#22a0f6"/><stop offset="0.81" stop-color="#1bb1f1"/><stop offset="0.89" stop-color="#13c7ea"/><stop offset="0.96" stop-color="#08e2e2"/><stop offset="1" stop-color="#00f7dc"/></linearGradient><linearGradient id="linear-gradient-5" x1="292.26" y1="268.73" x2="155.74" y2="32.27" xlink:href="#linear-gradient"/></defs><g id="Layer_2" data-name="Layer 2"><g id="Layer_1-2" data-name="Layer 1"><path class="cls-1" d="M50,450.5A49.56,49.56,0,0,1,.5,401V201a49.5,49.5,0,0,1,99,0V401A49.56,49.56,0,0,1,50,450.5Z"/><path d="M50,152a49.05,49.05,0,0,1,49,49V401a49,49,0,0,1-98,0V201a49.05,49.05,0,0,1,49-49m0-1h0A50,50,0,0,0,0,201V401a50,50,0,0,0,50,50h0a50,50,0,0,0,50-50V201a50,50,0,0,0-50-50Z"/><path class="cls-2" d="M399,451.5A49.56,49.56,0,0,1,349.5,402V50a49.5,49.5,0,0,1,99,0V402A49.56,49.56,0,0,1,399,451.5Z"/><path d="M399,1a49.05,49.05,0,0,1,49,49V402a49,49,0,0,1-98,0V50A49.05,49.05,0,0,1,399,1m0-1h0a50,50,0,0,0-50,50V402a50,50,0,0,0,50,50h0a50,50,0,0,0,50-50V50A50,50,0,0,0,399,0Z"/><circle class="cls-3" cx="50" cy="50" r="49.5"/><path d="M50,1A49,49,0,1,1,1,50,49.05,49.05,0,0,1,50,1m0-1a50,50,0,1,0,50,50A50,50,0,0,0,50,0Z"/><path class="cls-4" d="M50,450.5a49.5,49.5,0,0,1,0-99H224a49.5,49.5,0,0,1,0,99Z"/><path d="M224,352a49,49,0,0,1,0,98H50a49,49,0,0,1,0-98H224m0-1H50A50,50,0,0,0,0,401H0a50,50,0,0,0,50,50H224a50,50,0,0,0,50-50h0a50,50,0,0,0-50-50Z"/><path class="cls-5" d="M224,300.5A49.56,49.56,0,0,1,174.5,251V50a49.5,49.5,0,0,1,99,0V251A49.56,49.56,0,0,1,224,300.5Z"/><path d="M224,1a49.05,49.05,0,0,1,49,49V251a49,49,0,0,1-98,0V50A49.05,49.05,0,0,1,224,1m0-1h0a50,50,0,0,0-50,50V251a50,50,0,0,0,50,50h0a50,50,0,0,0,50-50V50A50,50,0,0,0,224,0Z"/></g></g></svg>