<?xml version="1.0" encoding="UTF-8" standalone="no"?>
<!DOCTYPE svg PUBLIC "-//W3C//DTD SVG 1.1//EN" "http://www.w3.org/Graphics/SVG/1.1/DTD/svg11.dtd">
<svg version="1.1" xmlns="http://www.w3.org/2000/svg" xmlns:xlink="http://www.w3.org/1999/xlink" preserveAspectRatio="xMidYMid meet" viewBox="0 0 635.75 640" width="635.75" height="640">
  <defs>
    <linearGradient spreadMethod="pad" id="gradient" x1="57%" y1="0%" x2="0%" y2="81%">
      <stop offset="0%" style="stop-color:rgb(125, 87, 247);stop-opacity:1;" />
      <stop offset="100%" style="stop-color:rgb(203, 64, 180);stop-opacity:1;" />
    </linearGradient>
  </defs>
  <defs>
    <path d="M0.71 567.79C0.71 539.47 0.71 312.92 0.71 284.6C0.71 245.9 32.09 214.52 70.8 214.52C109.51 214.52 140.88 245.9 140.88 284.6C140.88 312.92 140.88 539.47 140.88 567.79C140.84 606.48 109.49 637.83 70.8 637.88C32.11 637.83 0.75 606.48 0.71 567.79Z" id="hCDCXnCnW"></path>
    <path d="M70.8 215.22C109.1 215.26 140.14 246.3 140.18 284.6C140.18 312.92 140.18 539.47 140.18 567.79C140.18 606.11 109.11 637.17 70.8 637.17C32.48 637.17 1.42 606.11 1.42 567.79C1.42 539.47 1.42 312.92 1.42 284.6C1.45 246.3 32.49 215.26 70.8 215.22M70.8 213.81C31.7 213.81 0 245.5 0 284.6C0 312.92 0 539.47 0 567.79C0 606.89 31.7 638.59 70.8 638.59C70.8 638.59 70.8 638.59 70.8 638.59C109.9 638.59 141.59 606.89 141.59 567.79C141.59 539.47 141.59 312.92 141.59 284.6C141.59 245.5 109.9 213.81 70.8 213.81C70.8 213.81 70.8 213.81 70.8 213.81Z" id="b3AvWDNm8f"></path>
    <path d="M494.87 569.21C494.87 519.37 494.87 120.64 494.87 70.8C494.87 32.09 526.25 0.71 564.96 0.71C603.66 0.71 635.04 32.09 635.04 70.8C635.04 120.64 635.04 519.37 635.04 569.21C635 607.9 603.65 639.25 564.96 639.29C526.27 639.25 494.91 607.9 494.87 569.21Z" id="dhm81GuyW"></path>
    <path d="M564.96 1.42C603.26 1.46 634.3 32.5 634.34 70.8C634.34 120.64 634.34 519.37 634.34 569.21C634.34 607.52 603.27 638.59 564.96 638.59C526.64 638.59 495.58 607.52 495.58 569.21C495.58 519.37 495.58 120.64 495.58 70.8C495.61 32.5 526.65 1.46 564.96 1.42M564.96 0C525.86 0 494.16 31.7 494.16 70.8C494.16 120.64 494.16 519.37 494.16 569.21C494.16 608.31 525.86 640 564.96 640C564.96 640 564.96 640 564.96 640C604.06 640 635.75 608.31 635.75 569.21C635.75 519.37 635.75 120.64 635.75 70.8C635.75 31.7 604.06 0 564.96 0C564.96 0 564.96 0 564.96 0Z" id="b6lAcCd2d"></path>
    <path d="M70.8 0.71C32.09 0.71 0.71 32.09 0.71 70.8C0.71 109.51 32.09 140.89 70.8 140.89C109.51 140.89 140.88 109.51 140.88 70.8C140.88 32.09 109.51 0.71 70.8 0.71Z" id="g16shkfGYA"></path>
    <path d="M70.8 1.42C109.11 1.42 140.18 32.48 140.18 70.8C140.18 109.12 109.11 140.18 70.8 140.18C32.48 140.18 1.42 109.12 1.42 70.8C1.45 32.5 32.49 1.46 70.8 1.42M0 70.8C0 109.9 31.7 141.6 70.8 141.6C109.9 141.6 141.59 109.9 141.59 70.8C141.59 31.7 109.9 0 70.8 0C31.7 0 0 31.7 0 70.8Z" id="bxTiVY3R9"></path>
    <path d="M70.8 637.88C32.09 637.88 0.71 606.5 0.71 567.79C0.71 529.08 32.09 497.7 70.8 497.7C95.43 497.7 292.53 497.7 317.17 497.7C355.88 497.7 387.26 529.08 387.26 567.79C387.26 606.5 355.88 637.88 317.17 637.88C267.89 637.88 120.07 637.88 70.8 637.88Z" id="bSi0oy1Nb"></path>
    <path d="M317.17 498.41C355.49 498.41 386.55 529.47 386.55 567.79C386.55 606.11 355.49 637.17 317.17 637.17C292.53 637.17 95.43 637.17 70.8 637.17C32.48 637.17 1.42 606.11 1.42 567.79C1.42 529.47 32.48 498.41 70.8 498.41C87.22 498.41 169.35 498.41 317.17 498.41M70.8 496.99C31.7 496.99 0 528.69 0 567.79C0 567.79 0 567.79 0 567.79C0 606.89 31.7 638.59 70.8 638.59C95.43 638.59 292.53 638.59 317.17 638.59C356.27 638.59 387.96 606.89 387.96 567.79C387.96 567.79 387.96 567.79 387.96 567.79C387.96 528.69 356.27 496.99 317.17 496.99C267.89 496.99 95.43 496.99 70.8 496.99Z" id="a121P7I5z6"></path>
    <path d="M247.08 355.4C247.08 326.94 247.08 99.26 247.08 70.8C247.08 32.09 278.46 0.71 317.17 0.71C355.88 0.71 387.26 32.09 387.26 70.8C387.26 99.26 387.26 326.94 387.26 355.4C387.21 394.09 355.86 425.44 317.17 425.49C278.48 425.44 247.13 394.09 247.08 355.4Z" id="b3ieMjtr6Y"></path>
    <path d="M317.17 1.42C355.47 1.46 386.51 32.5 386.55 70.8C386.55 99.26 386.55 326.94 386.55 355.4C386.55 393.72 355.49 424.78 317.17 424.78C278.85 424.78 247.79 393.72 247.79 355.4C247.79 326.94 247.79 99.26 247.79 70.8C247.83 32.5 278.87 1.46 317.17 1.42M317.17 0C278.07 0 246.37 31.7 246.37 70.8C246.37 99.26 246.37 326.94 246.37 355.4C246.37 394.5 278.07 426.2 317.17 426.2C317.17 426.2 317.17 426.2 317.17 426.2C356.27 426.2 387.96 394.5 387.96 355.4C387.96 326.94 387.96 99.26 387.96 70.8C387.96 31.7 356.27 0 317.17 0C317.17 0 317.17 0 317.17 0Z" id="cEUH8p6pS"></path>
  </defs>
  <g>
    <g>
      <g>
        <g>
          <g>
            <use xlink:href="#hCDCXnCnW" opacity="1" fill-opacity="0" stroke="#000000" stroke-width="1" stroke-opacity="0"></use>
          </g>
        </g>
        <g>
          <use xlink:href="#b3AvWDNm8f" opacity="1" fill="url(#gradient)" fill-opacity="1"></use>
          <g>
            <use xlink:href="#b3AvWDNm8f" opacity="1" fill-opacity="0" stroke="#000000" stroke-width="1" stroke-opacity="0"></use>
          </g>
        </g>
        <g>
          <g>
            <use xlink:href="#dhm81GuyW" opacity="1" fill-opacity="0" stroke="#000000" stroke-width="1" stroke-opacity="0"></use>
          </g>
        </g>
        <g>
          <use xlink:href="#b6lAcCd2d" opacity="1" fill="url(#gradient)" fill-opacity="1"></use>
          <g>
            <use xlink:href="#b6lAcCd2d" opacity="1" fill-opacity="0" stroke="#000000" stroke-width="1" stroke-opacity="0"></use>
          </g>
        </g>
        <g>
          <g>
            <use xlink:href="#g16shkfGYA" opacity="1" fill-opacity="0" stroke="#000000" stroke-width="1" stroke-opacity="0"></use>
          </g>
        </g>
        <g>
          <use xlink:href="#bxTiVY3R9" opacity="1" fill="url(#gradient)" fill-opacity="1"></use>
          <g>
            <use xlink:href="#bxTiVY3R9" opacity="1" fill-opacity="0" stroke="#000000" stroke-width="1" stroke-opacity="0"></use>
          </g>
        </g>
        <g>
          <g>
            <use xlink:href="#bSi0oy1Nb" opacity="1" fill-opacity="0" stroke="#000000" stroke-width="1" stroke-opacity="0"></use>
          </g>
        </g>
        <g>
          <use xlink:href="#a121P7I5z6" opacity="1" fill="url(#gradient)" fill-opacity="1"></use>
          <g>
            <use xlink:href="#a121P7I5z6" opacity="1" fill-opacity="0" stroke="#000000" stroke-width="1" stroke-opacity="0"></use>
          </g>
        </g>
        <g>
          <g>
            <use xlink:href="#b3ieMjtr6Y" opacity="1" fill-opacity="0" stroke="#000000" stroke-width="1" stroke-opacity="0"></use>
          </g>
        </g>
        <g>
          <use xlink:href="#cEUH8p6pS" opacity="1" fill="url(#gradient)" fill-opacity="1"></use>
          <g>
            <use xlink:href="#cEUH8p6pS" opacity="1" fill-opacity="0" stroke="#000000" stroke-width="1" stroke-opacity="0"></use>
          </g>
        </g>
      </g>
    </g>
  </g>
</svg>
